<svg xmlns="http://www.w3.org/2000/svg" xmlns:xlink="http://www.w3.org/1999/xlink" width="500" zoomAndPan="magnify" viewBox="0 0 375 374.999991" height="500" preserveAspectRatio="xMidYMid meet" version="1.0"><defs><g/><clipPath id="38a7028b4b"><path d="M 98.921875 163.5 L 276.078125 163.5 L 276.078125 187.5 L 98.921875 187.5 Z M 98.921875 163.5 " clip-rule="nonzero"/></clipPath></defs><g fill="#ddb715" fill-opacity="1"><g transform="translate(55.125001, 230.657519)"><g><path d="M 23.765625 0 L 23.765625 -1.4375 L 26.359375 -1.4375 C 29.910156 -1.4375 32.476562 -2.0625 34.0625 -3.3125 C 35.644531 -4.5625 36.4375 -7.632812 36.4375 -12.53125 L 36.4375 -28.515625 L 2.015625 -28.515625 L 2.015625 -33.40625 L 36.859375 -102.8125 L 48.390625 -102.8125 L 48.390625 -34.703125 L 61.78125 -34.703125 L 61.78125 -28.515625 L 48.390625 -28.515625 L 48.390625 -12.53125 C 48.390625 -7.632812 49.15625 -4.5625 50.6875 -3.3125 C 52.21875 -2.0625 54.664062 -1.4375 58.03125 -1.4375 L 59.328125 -1.4375 L 59.328125 0 Z M 4.171875 -34.703125 L 36.4375 -34.703125 L 36.4375 -65.8125 C 36.4375 -72.050781 36.457031 -78.21875 36.5 -84.3125 C 36.550781 -90.40625 36.625 -95.613281 36.71875 -99.9375 C 36.144531 -98.59375 35.1875 -96.523438 33.84375 -93.734375 C 32.5 -90.953125 31.082031 -88.070312 29.59375 -85.09375 C 28.101562 -82.125 26.878906 -79.726562 25.921875 -77.90625 Z M 4.171875 -34.703125 "/></g></g></g><g fill="#ddb715" fill-opacity="1"><g transform="translate(118.916962, 230.657519)"><g/></g></g><g fill="#ddb715" fill-opacity="1"><g transform="translate(144.116954, 230.657519)"><g><path d="M 4.03125 0 L 4.03125 -1.4375 L 7.0625 -1.4375 C 9.9375 -1.4375 11.945312 -2.0625 13.09375 -3.3125 C 14.25 -4.5625 14.828125 -7.585938 14.828125 -12.390625 L 14.828125 -90.140625 C 14.828125 -95.035156 14.273438 -98.128906 13.171875 -99.421875 C 12.066406 -100.722656 10.03125 -101.375 7.0625 -101.375 L 4.03125 -101.375 L 4.03125 -102.8125 L 62.78125 -102.8125 L 63.5 -77.90625 L 62.0625 -77.90625 L 61.78125 -85.390625 C 61.488281 -89.710938 60.835938 -93.023438 59.828125 -95.328125 C 58.816406 -97.628906 57.179688 -99.210938 54.921875 -100.078125 C 52.671875 -100.941406 49.53125 -101.375 45.5 -101.375 L 27.5 -101.375 L 27.5 -54.578125 L 56.453125 -54.578125 L 56.453125 -53.140625 L 27.5 -53.140625 L 27.359375 -1.4375 L 49.53125 -1.4375 C 53.5625 -1.4375 56.65625 -1.84375 58.8125 -2.65625 C 60.976562 -3.476562 62.539062 -4.921875 63.5 -6.984375 C 64.457031 -9.046875 65.082031 -12 65.375 -15.84375 L 65.953125 -24.90625 L 67.390625 -24.90625 L 66.53125 0 Z M 4.03125 0 "/></g></g></g><g fill="#ddb715" fill-opacity="1"><g transform="translate(215.828913, 230.657519)"><g/></g></g><g fill="#ddb715" fill-opacity="1"><g transform="translate(241.028905, 230.657519)"><g><path d="M 4.03125 0 L 4.03125 -1.4375 L 7.78125 -1.4375 C 10.5625 -1.4375 12.429688 -2.128906 13.390625 -3.515625 C 14.347656 -4.910156 14.828125 -7.867188 14.828125 -12.390625 L 14.828125 -90.859375 C 14.828125 -95.367188 14.320312 -98.25 13.3125 -99.5 C 12.3125 -100.75 10.367188 -101.375 7.484375 -101.375 L 4.03125 -101.375 L 4.03125 -102.8125 L 38.453125 -102.8125 C 51.023438 -102.8125 60.691406 -98.347656 67.453125 -89.421875 C 74.222656 -80.492188 77.609375 -67.773438 77.609375 -51.265625 C 77.609375 -40.703125 76.164062 -31.601562 73.28125 -23.96875 C 70.40625 -16.34375 66.0625 -10.441406 60.25 -6.265625 C 54.445312 -2.085938 47.128906 0 38.296875 0 Z M 27.5 -1.4375 L 37.015625 -1.4375 C 46.421875 -1.4375 53.304688 -5.375 57.671875 -13.25 C 62.035156 -21.125 64.21875 -33.84375 64.21875 -51.40625 C 64.21875 -68.113281 62.054688 -80.617188 57.734375 -88.921875 C 53.421875 -97.222656 46.5625 -101.375 37.15625 -101.375 L 27.5 -101.375 Z M 27.5 -1.4375 "/></g></g></g><g clip-path="url(#38a7028b4b)"><path fill="#ffffff" d="M 98.921875 163.5 L 276.121094 163.5 L 276.121094 187.5 L 98.921875 187.5 Z M 98.921875 163.5 " fill-opacity="1" fill-rule="nonzero"/></g><g fill="#000000" fill-opacity="1"><g transform="translate(113.40726, 267.574239)"><g><path d="M 3.5 0 C 3.125 0 2.832031 0 2.625 0 C 2.414062 -0.0078125 2.25 -0.0195312 2.125 -0.03125 C 2 -0.0390625 1.90625 -0.046875 1.84375 -0.046875 C 1.78125 -0.0546875 1.71875 -0.078125 1.65625 -0.109375 C 1.414062 -0.171875 1.21875 -0.28125 1.0625 -0.4375 C 0.90625 -0.59375 0.78125 -0.820312 0.6875 -1.125 C 0.59375 -1.425781 0.53125 -1.816406 0.5 -2.296875 C 0.46875 -2.785156 0.453125 -3.394531 0.453125 -4.125 L 0.453125 -7.796875 C 0.453125 -7.960938 0.457031 -8.148438 0.46875 -8.359375 C 0.476562 -8.578125 0.488281 -8.789062 0.5 -9 C 0.519531 -9.207031 0.535156 -9.398438 0.546875 -9.578125 C 0.566406 -9.753906 0.59375 -9.894531 0.625 -10 C 0.695312 -10.394531 0.820312 -10.695312 1 -10.90625 C 1.175781 -11.125 1.425781 -11.28125 1.75 -11.375 C 1.820312 -11.382812 1.894531 -11.394531 1.96875 -11.40625 C 2.039062 -11.414062 2.132812 -11.425781 2.25 -11.4375 C 2.375 -11.445312 2.535156 -11.453125 2.734375 -11.453125 C 2.929688 -11.460938 3.1875 -11.46875 3.5 -11.46875 L 6.359375 -11.46875 L 6.359375 -8.984375 L 3.53125 -8.984375 L 3.53125 -6.984375 L 6.359375 -6.984375 L 6.359375 -4.484375 L 3.53125 -4.484375 L 3.53125 -2.5 L 6.359375 -2.5 L 6.359375 0 Z M 3.5 0 "/></g></g></g><g fill="#000000" fill-opacity="1"><g transform="translate(120.219672, 267.574239)"><g><path d="M 0.5625 -8.859375 C 0.5625 -9.128906 0.554688 -9.367188 0.546875 -9.578125 C 0.546875 -9.796875 0.535156 -10.003906 0.515625 -10.203125 C 0.492188 -10.410156 0.460938 -10.613281 0.421875 -10.8125 C 0.378906 -11.007812 0.332031 -11.226562 0.28125 -11.46875 L 3.390625 -11.46875 C 3.429688 -11.300781 3.46875 -11.15625 3.5 -11.03125 C 3.539062 -10.90625 3.566406 -10.785156 3.578125 -10.671875 C 3.597656 -10.566406 3.617188 -10.457031 3.640625 -10.34375 C 3.660156 -10.238281 3.675781 -10.109375 3.6875 -9.953125 C 3.757812 -10.253906 3.847656 -10.503906 3.953125 -10.703125 C 4.054688 -10.898438 4.1875 -11.054688 4.34375 -11.171875 C 4.5 -11.285156 4.691406 -11.363281 4.921875 -11.40625 C 5.160156 -11.445312 5.445312 -11.46875 5.78125 -11.46875 C 6.082031 -11.46875 6.332031 -11.457031 6.53125 -11.4375 C 6.738281 -11.414062 6.914062 -11.367188 7.0625 -11.296875 C 7.21875 -11.234375 7.34375 -11.144531 7.4375 -11.03125 C 7.539062 -10.925781 7.632812 -10.785156 7.71875 -10.609375 C 7.78125 -10.492188 7.828125 -10.394531 7.859375 -10.3125 C 7.890625 -10.226562 7.914062 -10.097656 7.9375 -9.921875 C 7.957031 -9.742188 7.96875 -9.488281 7.96875 -9.15625 C 7.96875 -8.820312 7.96875 -8.347656 7.96875 -7.734375 L 7.96875 0 L 4.890625 0 L 4.890625 -7.9375 C 4.890625 -8.539062 4.679688 -8.84375 4.265625 -8.84375 C 3.847656 -8.84375 3.640625 -8.523438 3.640625 -7.890625 L 3.640625 0 L 0.5625 0 Z M 0.5625 -8.859375 "/></g></g></g><g fill="#000000" fill-opacity="1"><g transform="translate(128.735187, 267.574239)"><g><path d="M 3.5625 0 C 3.25 0 2.988281 0 2.78125 0 C 2.582031 0 2.410156 -0.00390625 2.265625 -0.015625 C 2.117188 -0.0234375 1.992188 -0.0351562 1.890625 -0.046875 C 1.796875 -0.0546875 1.710938 -0.078125 1.640625 -0.109375 C 1.253906 -0.191406 0.976562 -0.335938 0.8125 -0.546875 C 0.644531 -0.765625 0.539062 -1.113281 0.5 -1.59375 C 0.5 -1.644531 0.492188 -1.695312 0.484375 -1.75 C 0.484375 -1.800781 0.484375 -1.898438 0.484375 -2.046875 C 0.484375 -2.191406 0.476562 -2.414062 0.46875 -2.71875 C 0.46875 -3.019531 0.460938 -3.441406 0.453125 -3.984375 L 0.453125 -7.4375 C 0.453125 -8.457031 0.492188 -9.238281 0.578125 -9.78125 C 0.671875 -10.320312 0.828125 -10.707031 1.046875 -10.9375 C 1.148438 -11.039062 1.257812 -11.125 1.375 -11.1875 C 1.5 -11.257812 1.65625 -11.316406 1.84375 -11.359375 C 2.039062 -11.398438 2.273438 -11.425781 2.546875 -11.4375 C 2.816406 -11.457031 3.15625 -11.46875 3.5625 -11.46875 L 7.875 -11.46875 L 7.875 -8.65625 C 7.625 -8.75 7.289062 -8.828125 6.875 -8.890625 C 6.457031 -8.953125 6.046875 -8.984375 5.640625 -8.984375 L 4.5625 -8.984375 C 4.320312 -8.984375 4.128906 -8.972656 3.984375 -8.953125 C 3.847656 -8.929688 3.742188 -8.882812 3.671875 -8.8125 C 3.609375 -8.738281 3.566406 -8.632812 3.546875 -8.5 C 3.535156 -8.363281 3.53125 -8.175781 3.53125 -7.9375 L 3.53125 -3.859375 C 3.53125 -3.546875 3.535156 -3.300781 3.546875 -3.125 C 3.566406 -2.945312 3.601562 -2.804688 3.65625 -2.703125 C 3.707031 -2.609375 3.785156 -2.550781 3.890625 -2.53125 C 3.992188 -2.507812 4.128906 -2.5 4.296875 -2.5 L 4.796875 -2.5 L 4.796875 -5.265625 C 4.796875 -5.484375 4.78125 -5.691406 4.75 -5.890625 C 4.71875 -6.085938 4.65625 -6.304688 4.5625 -6.546875 L 7.875 -6.546875 L 7.875 -2.546875 C 7.875 -2.191406 7.867188 -1.894531 7.859375 -1.65625 C 7.847656 -1.425781 7.820312 -1.234375 7.78125 -1.078125 C 7.75 -0.921875 7.703125 -0.789062 7.640625 -0.6875 C 7.578125 -0.582031 7.492188 -0.488281 7.390625 -0.40625 C 7.296875 -0.320312 7.191406 -0.253906 7.078125 -0.203125 C 6.960938 -0.148438 6.8125 -0.109375 6.625 -0.078125 C 6.4375 -0.046875 6.203125 -0.0234375 5.921875 -0.015625 C 5.640625 -0.00390625 5.273438 0 4.828125 0 Z M 3.5625 0 "/></g></g></g><g fill="#000000" fill-opacity="1"><g transform="translate(137.061474, 267.574239)"><g><path d="M 0.546875 -11.46875 L 3.625 -11.46875 L 3.625 0 L 0.546875 0 Z M 0.546875 -11.46875 "/></g></g></g><g fill="#000000" fill-opacity="1"><g transform="translate(141.241827, 267.574239)"><g><path d="M 0.5625 -8.859375 C 0.5625 -9.128906 0.554688 -9.367188 0.546875 -9.578125 C 0.546875 -9.796875 0.535156 -10.003906 0.515625 -10.203125 C 0.492188 -10.410156 0.460938 -10.613281 0.421875 -10.8125 C 0.378906 -11.007812 0.332031 -11.226562 0.28125 -11.46875 L 3.390625 -11.46875 C 3.429688 -11.300781 3.46875 -11.15625 3.5 -11.03125 C 3.539062 -10.90625 3.566406 -10.785156 3.578125 -10.671875 C 3.597656 -10.566406 3.617188 -10.457031 3.640625 -10.34375 C 3.660156 -10.238281 3.675781 -10.109375 3.6875 -9.953125 C 3.757812 -10.253906 3.847656 -10.503906 3.953125 -10.703125 C 4.054688 -10.898438 4.1875 -11.054688 4.34375 -11.171875 C 4.5 -11.285156 4.691406 -11.363281 4.921875 -11.40625 C 5.160156 -11.445312 5.445312 -11.46875 5.78125 -11.46875 C 6.082031 -11.46875 6.332031 -11.457031 6.53125 -11.4375 C 6.738281 -11.414062 6.914062 -11.367188 7.0625 -11.296875 C 7.21875 -11.234375 7.34375 -11.144531 7.4375 -11.03125 C 7.539062 -10.925781 7.632812 -10.785156 7.71875 -10.609375 C 7.78125 -10.492188 7.828125 -10.394531 7.859375 -10.3125 C 7.890625 -10.226562 7.914062 -10.097656 7.9375 -9.921875 C 7.957031 -9.742188 7.96875 -9.488281 7.96875 -9.15625 C 7.96875 -8.820312 7.96875 -8.347656 7.96875 -7.734375 L 7.96875 0 L 4.890625 0 L 4.890625 -7.9375 C 4.890625 -8.539062 4.679688 -8.84375 4.265625 -8.84375 C 3.847656 -8.84375 3.640625 -8.523438 3.640625 -7.890625 L 3.640625 0 L 0.5625 0 Z M 0.5625 -8.859375 "/></g></g></g><g fill="#000000" fill-opacity="1"><g transform="translate(149.757342, 267.574239)"><g><path d="M 3.5 0 C 3.125 0 2.832031 0 2.625 0 C 2.414062 -0.0078125 2.25 -0.0195312 2.125 -0.03125 C 2 -0.0390625 1.90625 -0.046875 1.84375 -0.046875 C 1.78125 -0.0546875 1.71875 -0.078125 1.65625 -0.109375 C 1.414062 -0.171875 1.21875 -0.28125 1.0625 -0.4375 C 0.90625 -0.59375 0.78125 -0.820312 0.6875 -1.125 C 0.59375 -1.425781 0.53125 -1.816406 0.5 -2.296875 C 0.46875 -2.785156 0.453125 -3.394531 0.453125 -4.125 L 0.453125 -7.796875 C 0.453125 -7.960938 0.457031 -8.148438 0.46875 -8.359375 C 0.476562 -8.578125 0.488281 -8.789062 0.5 -9 C 0.519531 -9.207031 0.535156 -9.398438 0.546875 -9.578125 C 0.566406 -9.753906 0.59375 -9.894531 0.625 -10 C 0.695312 -10.394531 0.820312 -10.695312 1 -10.90625 C 1.175781 -11.125 1.425781 -11.28125 1.75 -11.375 C 1.820312 -11.382812 1.894531 -11.394531 1.96875 -11.40625 C 2.039062 -11.414062 2.132812 -11.425781 2.25 -11.4375 C 2.375 -11.445312 2.535156 -11.453125 2.734375 -11.453125 C 2.929688 -11.460938 3.1875 -11.46875 3.5 -11.46875 L 6.359375 -11.46875 L 6.359375 -8.984375 L 3.53125 -8.984375 L 3.53125 -6.984375 L 6.359375 -6.984375 L 6.359375 -4.484375 L 3.53125 -4.484375 L 3.53125 -2.5 L 6.359375 -2.5 L 6.359375 0 Z M 3.5 0 "/></g></g></g><g fill="#000000" fill-opacity="1"><g transform="translate(156.569754, 267.574239)"><g><path d="M 3.5 0 C 3.125 0 2.832031 0 2.625 0 C 2.414062 -0.0078125 2.25 -0.0195312 2.125 -0.03125 C 2 -0.0390625 1.90625 -0.046875 1.84375 -0.046875 C 1.78125 -0.0546875 1.71875 -0.078125 1.65625 -0.109375 C 1.414062 -0.171875 1.21875 -0.28125 1.0625 -0.4375 C 0.90625 -0.59375 0.78125 -0.820312 0.6875 -1.125 C 0.59375 -1.425781 0.53125 -1.816406 0.5 -2.296875 C 0.46875 -2.785156 0.453125 -3.394531 0.453125 -4.125 L 0.453125 -7.796875 C 0.453125 -7.960938 0.457031 -8.148438 0.46875 -8.359375 C 0.476562 -8.578125 0.488281 -8.789062 0.5 -9 C 0.519531 -9.207031 0.535156 -9.398438 0.546875 -9.578125 C 0.566406 -9.753906 0.59375 -9.894531 0.625 -10 C 0.695312 -10.394531 0.820312 -10.695312 1 -10.90625 C 1.175781 -11.125 1.425781 -11.28125 1.75 -11.375 C 1.820312 -11.382812 1.894531 -11.394531 1.96875 -11.40625 C 2.039062 -11.414062 2.132812 -11.425781 2.25 -11.4375 C 2.375 -11.445312 2.535156 -11.453125 2.734375 -11.453125 C 2.929688 -11.460938 3.1875 -11.46875 3.5 -11.46875 L 6.359375 -11.46875 L 6.359375 -8.984375 L 3.53125 -8.984375 L 3.53125 -6.984375 L 6.359375 -6.984375 L 6.359375 -4.484375 L 3.53125 -4.484375 L 3.53125 -2.5 L 6.359375 -2.5 L 6.359375 0 Z M 3.5 0 "/></g></g></g><g fill="#000000" fill-opacity="1"><g transform="translate(163.382166, 267.574239)"><g><path d="M 0.546875 -11.46875 L 5.25 -11.46875 C 5.632812 -11.46875 5.941406 -11.460938 6.171875 -11.453125 C 6.398438 -11.453125 6.582031 -11.441406 6.71875 -11.421875 C 6.863281 -11.410156 6.972656 -11.382812 7.046875 -11.34375 C 7.128906 -11.3125 7.21875 -11.269531 7.3125 -11.21875 C 7.769531 -10.914062 8 -10.257812 8 -9.25 L 8 -8.515625 C 8 -8.222656 7.992188 -7.976562 7.984375 -7.78125 C 7.984375 -7.59375 7.96875 -7.429688 7.9375 -7.296875 C 7.914062 -7.160156 7.882812 -7.039062 7.84375 -6.9375 C 7.8125 -6.832031 7.757812 -6.726562 7.6875 -6.625 C 7.550781 -6.394531 7.378906 -6.222656 7.171875 -6.109375 C 6.972656 -6.003906 6.6875 -5.929688 6.3125 -5.890625 C 6.65625 -5.785156 6.9375 -5.675781 7.15625 -5.5625 C 7.375 -5.457031 7.546875 -5.320312 7.671875 -5.15625 C 7.796875 -4.988281 7.878906 -4.789062 7.921875 -4.5625 C 7.972656 -4.332031 8 -4.046875 8 -3.703125 L 8 -1.921875 C 8 -1.222656 8.078125 -0.582031 8.234375 0 L 5.15625 0 C 5.0625 -0.300781 5 -0.585938 4.96875 -0.859375 C 4.9375 -1.128906 4.921875 -1.484375 4.921875 -1.921875 L 4.921875 -3.453125 C 4.921875 -3.828125 4.847656 -4.09375 4.703125 -4.25 C 4.566406 -4.40625 4.34375 -4.484375 4.03125 -4.484375 L 3.625 -4.484375 L 3.625 0 L 0.546875 0 Z M 4.0625 -6.984375 C 4.414062 -6.984375 4.648438 -7.046875 4.765625 -7.171875 C 4.878906 -7.296875 4.9375 -7.5625 4.9375 -7.96875 C 4.9375 -8.34375 4.875 -8.601562 4.75 -8.75 C 4.625 -8.90625 4.394531 -8.984375 4.0625 -8.984375 L 3.625 -8.984375 L 3.625 -6.984375 Z M 4.0625 -6.984375 "/></g></g></g><g fill="#000000" fill-opacity="1"><g transform="translate(171.932101, 267.574239)"><g><path d="M 0.546875 -11.46875 L 3.625 -11.46875 L 3.625 0 L 0.546875 0 Z M 0.546875 -11.46875 "/></g></g></g><g fill="#000000" fill-opacity="1"><g transform="translate(176.112455, 267.574239)"><g><path d="M 0.5625 -8.859375 C 0.5625 -9.128906 0.554688 -9.367188 0.546875 -9.578125 C 0.546875 -9.796875 0.535156 -10.003906 0.515625 -10.203125 C 0.492188 -10.410156 0.460938 -10.613281 0.421875 -10.8125 C 0.378906 -11.007812 0.332031 -11.226562 0.28125 -11.46875 L 3.390625 -11.46875 C 3.429688 -11.300781 3.46875 -11.15625 3.5 -11.03125 C 3.539062 -10.90625 3.566406 -10.785156 3.578125 -10.671875 C 3.597656 -10.566406 3.617188 -10.457031 3.640625 -10.34375 C 3.660156 -10.238281 3.675781 -10.109375 3.6875 -9.953125 C 3.757812 -10.253906 3.847656 -10.503906 3.953125 -10.703125 C 4.054688 -10.898438 4.1875 -11.054688 4.34375 -11.171875 C 4.5 -11.285156 4.691406 -11.363281 4.921875 -11.40625 C 5.160156 -11.445312 5.445312 -11.46875 5.78125 -11.46875 C 6.082031 -11.46875 6.332031 -11.457031 6.53125 -11.4375 C 6.738281 -11.414062 6.914062 -11.367188 7.0625 -11.296875 C 7.21875 -11.234375 7.34375 -11.144531 7.4375 -11.03125 C 7.539062 -10.925781 7.632812 -10.785156 7.71875 -10.609375 C 7.78125 -10.492188 7.828125 -10.394531 7.859375 -10.3125 C 7.890625 -10.226562 7.914062 -10.097656 7.9375 -9.921875 C 7.957031 -9.742188 7.96875 -9.488281 7.96875 -9.15625 C 7.96875 -8.820312 7.96875 -8.347656 7.96875 -7.734375 L 7.96875 0 L 4.890625 0 L 4.890625 -7.9375 C 4.890625 -8.539062 4.679688 -8.84375 4.265625 -8.84375 C 3.847656 -8.84375 3.640625 -8.523438 3.640625 -7.890625 L 3.640625 0 L 0.5625 0 Z M 0.5625 -8.859375 "/></g></g></g><g fill="#000000" fill-opacity="1"><g transform="translate(184.62797, 267.574239)"><g><path d="M 3.5625 0 C 3.25 0 2.988281 0 2.78125 0 C 2.582031 0 2.410156 -0.00390625 2.265625 -0.015625 C 2.117188 -0.0234375 1.992188 -0.0351562 1.890625 -0.046875 C 1.796875 -0.0546875 1.710938 -0.078125 1.640625 -0.109375 C 1.253906 -0.191406 0.976562 -0.335938 0.8125 -0.546875 C 0.644531 -0.765625 0.539062 -1.113281 0.5 -1.59375 C 0.5 -1.644531 0.492188 -1.695312 0.484375 -1.75 C 0.484375 -1.800781 0.484375 -1.898438 0.484375 -2.046875 C 0.484375 -2.191406 0.476562 -2.414062 0.46875 -2.71875 C 0.46875 -3.019531 0.460938 -3.441406 0.453125 -3.984375 L 0.453125 -7.4375 C 0.453125 -8.457031 0.492188 -9.238281 0.578125 -9.78125 C 0.671875 -10.320312 0.828125 -10.707031 1.046875 -10.9375 C 1.148438 -11.039062 1.257812 -11.125 1.375 -11.1875 C 1.5 -11.257812 1.65625 -11.316406 1.84375 -11.359375 C 2.039062 -11.398438 2.273438 -11.425781 2.546875 -11.4375 C 2.816406 -11.457031 3.15625 -11.46875 3.5625 -11.46875 L 7.875 -11.46875 L 7.875 -8.65625 C 7.625 -8.75 7.289062 -8.828125 6.875 -8.890625 C 6.457031 -8.953125 6.046875 -8.984375 5.640625 -8.984375 L 4.5625 -8.984375 C 4.320312 -8.984375 4.128906 -8.972656 3.984375 -8.953125 C 3.847656 -8.929688 3.742188 -8.882812 3.671875 -8.8125 C 3.609375 -8.738281 3.566406 -8.632812 3.546875 -8.5 C 3.535156 -8.363281 3.53125 -8.175781 3.53125 -7.9375 L 3.53125 -3.859375 C 3.53125 -3.546875 3.535156 -3.300781 3.546875 -3.125 C 3.566406 -2.945312 3.601562 -2.804688 3.65625 -2.703125 C 3.707031 -2.609375 3.785156 -2.550781 3.890625 -2.53125 C 3.992188 -2.507812 4.128906 -2.5 4.296875 -2.5 L 4.796875 -2.5 L 4.796875 -5.265625 C 4.796875 -5.484375 4.78125 -5.691406 4.75 -5.890625 C 4.71875 -6.085938 4.65625 -6.304688 4.5625 -6.546875 L 7.875 -6.546875 L 7.875 -2.546875 C 7.875 -2.191406 7.867188 -1.894531 7.859375 -1.65625 C 7.847656 -1.425781 7.820312 -1.234375 7.78125 -1.078125 C 7.75 -0.921875 7.703125 -0.789062 7.640625 -0.6875 C 7.578125 -0.582031 7.492188 -0.488281 7.390625 -0.40625 C 7.296875 -0.320312 7.191406 -0.253906 7.078125 -0.203125 C 6.960938 -0.148438 6.8125 -0.109375 6.625 -0.078125 C 6.4375 -0.046875 6.203125 -0.0234375 5.921875 -0.015625 C 5.640625 -0.00390625 5.273438 0 4.828125 0 Z M 3.5625 0 "/></g></g></g><g fill="#000000" fill-opacity="1"><g transform="translate(192.954256, 267.574239)"><g/></g></g><g fill="#000000" fill-opacity="1"><g transform="translate(197.031379, 267.574239)"><g><path d="M 1.390625 -8.984375 L 0 -8.984375 L 0 -11.46875 L 5.859375 -11.46875 L 5.859375 -8.984375 L 4.46875 -8.984375 L 4.46875 0 L 1.390625 0 Z M 1.390625 -8.984375 "/></g></g></g><g fill="#000000" fill-opacity="1"><g transform="translate(202.897633, 267.574239)"><g><path d="M 0.546875 -11.46875 L 3.625 -11.46875 L 3.625 -6.984375 L 4.9375 -6.984375 L 4.9375 -11.46875 L 8.015625 -11.46875 L 8.015625 0 L 4.9375 0 L 4.9375 -4.484375 L 3.625 -4.484375 L 3.625 0 L 0.546875 0 Z M 0.546875 -11.46875 "/></g></g></g><g fill="#000000" fill-opacity="1"><g transform="translate(211.464771, 267.574239)"><g><path d="M 3.5 0 C 3.125 0 2.832031 0 2.625 0 C 2.414062 -0.0078125 2.25 -0.0195312 2.125 -0.03125 C 2 -0.0390625 1.90625 -0.046875 1.84375 -0.046875 C 1.78125 -0.0546875 1.71875 -0.078125 1.65625 -0.109375 C 1.414062 -0.171875 1.21875 -0.28125 1.0625 -0.4375 C 0.90625 -0.59375 0.78125 -0.820312 0.6875 -1.125 C 0.59375 -1.425781 0.53125 -1.816406 0.5 -2.296875 C 0.46875 -2.785156 0.453125 -3.394531 0.453125 -4.125 L 0.453125 -7.796875 C 0.453125 -7.960938 0.457031 -8.148438 0.46875 -8.359375 C 0.476562 -8.578125 0.488281 -8.789062 0.5 -9 C 0.519531 -9.207031 0.535156 -9.398438 0.546875 -9.578125 C 0.566406 -9.753906 0.59375 -9.894531 0.625 -10 C 0.695312 -10.394531 0.820312 -10.695312 1 -10.90625 C 1.175781 -11.125 1.425781 -11.28125 1.75 -11.375 C 1.820312 -11.382812 1.894531 -11.394531 1.96875 -11.40625 C 2.039062 -11.414062 2.132812 -11.425781 2.25 -11.4375 C 2.375 -11.445312 2.535156 -11.453125 2.734375 -11.453125 C 2.929688 -11.460938 3.1875 -11.46875 3.5 -11.46875 L 6.359375 -11.46875 L 6.359375 -8.984375 L 3.53125 -8.984375 L 3.53125 -6.984375 L 6.359375 -6.984375 L 6.359375 -4.484375 L 3.53125 -4.484375 L 3.53125 -2.5 L 6.359375 -2.5 L 6.359375 0 Z M 3.5 0 "/></g></g></g><g fill="#000000" fill-opacity="1"><g transform="translate(218.277183, 267.574239)"><g/></g></g><g fill="#000000" fill-opacity="1"><g transform="translate(222.354305, 267.574239)"><g><path d="M 0.546875 -11.46875 L 5.578125 -11.46875 L 5.578125 -8.984375 L 3.625 -8.984375 L 3.625 -6.984375 L 5.578125 -6.984375 L 5.578125 -4.484375 L 3.625 -4.484375 L 3.625 0 L 0.546875 0 Z M 0.546875 -11.46875 "/></g></g></g><g fill="#000000" fill-opacity="1"><g transform="translate(228.375383, 267.574239)"><g><path d="M 3.640625 0 C 2.890625 0 2.320312 -0.03125 1.9375 -0.09375 C 1.550781 -0.15625 1.265625 -0.269531 1.078125 -0.4375 C 0.898438 -0.59375 0.765625 -0.820312 0.671875 -1.125 C 0.585938 -1.425781 0.546875 -1.832031 0.546875 -2.34375 L 0.546875 -11.46875 L 3.625 -11.46875 L 3.625 -3.453125 C 3.625 -2.753906 3.835938 -2.40625 4.265625 -2.40625 C 4.703125 -2.40625 4.921875 -2.753906 4.921875 -3.453125 L 4.921875 -11.46875 L 8 -11.46875 L 8 -2.34375 C 8 -1.832031 7.953125 -1.425781 7.859375 -1.125 C 7.773438 -0.820312 7.644531 -0.59375 7.46875 -0.4375 C 7.28125 -0.269531 6.988281 -0.15625 6.59375 -0.09375 C 6.207031 -0.03125 5.644531 0 4.90625 0 Z M 3.640625 0 "/></g></g></g><g fill="#000000" fill-opacity="1"><g transform="translate(236.925318, 267.574239)"><g><path d="M 1.390625 -8.984375 L 0 -8.984375 L 0 -11.46875 L 5.859375 -11.46875 L 5.859375 -8.984375 L 4.46875 -8.984375 L 4.46875 0 L 1.390625 0 Z M 1.390625 -8.984375 "/></g></g></g><g fill="#000000" fill-opacity="1"><g transform="translate(242.791571, 267.574239)"><g><path d="M 3.640625 0 C 2.890625 0 2.320312 -0.03125 1.9375 -0.09375 C 1.550781 -0.15625 1.265625 -0.269531 1.078125 -0.4375 C 0.898438 -0.59375 0.765625 -0.820312 0.671875 -1.125 C 0.585938 -1.425781 0.546875 -1.832031 0.546875 -2.34375 L 0.546875 -11.46875 L 3.625 -11.46875 L 3.625 -3.453125 C 3.625 -2.753906 3.835938 -2.40625 4.265625 -2.40625 C 4.703125 -2.40625 4.921875 -2.753906 4.921875 -3.453125 L 4.921875 -11.46875 L 8 -11.46875 L 8 -2.34375 C 8 -1.832031 7.953125 -1.425781 7.859375 -1.125 C 7.773438 -0.820312 7.644531 -0.59375 7.46875 -0.4375 C 7.28125 -0.269531 6.988281 -0.15625 6.59375 -0.09375 C 6.207031 -0.03125 5.644531 0 4.90625 0 Z M 3.640625 0 "/></g></g></g><g fill="#000000" fill-opacity="1"><g transform="translate(251.341507, 267.574239)"><g><path d="M 0.546875 -11.46875 L 5.25 -11.46875 C 5.632812 -11.46875 5.941406 -11.460938 6.171875 -11.453125 C 6.398438 -11.453125 6.582031 -11.441406 6.71875 -11.421875 C 6.863281 -11.410156 6.972656 -11.382812 7.046875 -11.34375 C 7.128906 -11.3125 7.21875 -11.269531 7.3125 -11.21875 C 7.769531 -10.914062 8 -10.257812 8 -9.25 L 8 -8.515625 C 8 -8.222656 7.992188 -7.976562 7.984375 -7.78125 C 7.984375 -7.59375 7.96875 -7.429688 7.9375 -7.296875 C 7.914062 -7.160156 7.882812 -7.039062 7.84375 -6.9375 C 7.8125 -6.832031 7.757812 -6.726562 7.6875 -6.625 C 7.550781 -6.394531 7.378906 -6.222656 7.171875 -6.109375 C 6.972656 -6.003906 6.6875 -5.929688 6.3125 -5.890625 C 6.65625 -5.785156 6.9375 -5.675781 7.15625 -5.5625 C 7.375 -5.457031 7.546875 -5.320312 7.671875 -5.15625 C 7.796875 -4.988281 7.878906 -4.789062 7.921875 -4.5625 C 7.972656 -4.332031 8 -4.046875 8 -3.703125 L 8 -1.921875 C 8 -1.222656 8.078125 -0.582031 8.234375 0 L 5.15625 0 C 5.0625 -0.300781 5 -0.585938 4.96875 -0.859375 C 4.9375 -1.128906 4.921875 -1.484375 4.921875 -1.921875 L 4.921875 -3.453125 C 4.921875 -3.828125 4.847656 -4.09375 4.703125 -4.25 C 4.566406 -4.40625 4.34375 -4.484375 4.03125 -4.484375 L 3.625 -4.484375 L 3.625 0 L 0.546875 0 Z M 4.0625 -6.984375 C 4.414062 -6.984375 4.648438 -7.046875 4.765625 -7.171875 C 4.878906 -7.296875 4.9375 -7.5625 4.9375 -7.96875 C 4.9375 -8.34375 4.875 -8.601562 4.75 -8.75 C 4.625 -8.90625 4.394531 -8.984375 4.0625 -8.984375 L 3.625 -8.984375 L 3.625 -6.984375 Z M 4.0625 -6.984375 "/></g></g></g><g fill="#000000" fill-opacity="1"><g transform="translate(259.891442, 267.574239)"><g><path d="M 3.5 0 C 3.125 0 2.832031 0 2.625 0 C 2.414062 -0.0078125 2.25 -0.0195312 2.125 -0.03125 C 2 -0.0390625 1.90625 -0.046875 1.84375 -0.046875 C 1.78125 -0.0546875 1.71875 -0.078125 1.65625 -0.109375 C 1.414062 -0.171875 1.21875 -0.28125 1.0625 -0.4375 C 0.90625 -0.59375 0.78125 -0.820312 0.6875 -1.125 C 0.59375 -1.425781 0.53125 -1.816406 0.5 -2.296875 C 0.46875 -2.785156 0.453125 -3.394531 0.453125 -4.125 L 0.453125 -7.796875 C 0.453125 -7.960938 0.457031 -8.148438 0.46875 -8.359375 C 0.476562 -8.578125 0.488281 -8.789062 0.5 -9 C 0.519531 -9.207031 0.535156 -9.398438 0.546875 -9.578125 C 0.566406 -9.753906 0.59375 -9.894531 0.625 -10 C 0.695312 -10.394531 0.820312 -10.695312 1 -10.90625 C 1.175781 -11.125 1.425781 -11.28125 1.75 -11.375 C 1.820312 -11.382812 1.894531 -11.394531 1.96875 -11.40625 C 2.039062 -11.414062 2.132812 -11.425781 2.25 -11.4375 C 2.375 -11.445312 2.535156 -11.453125 2.734375 -11.453125 C 2.929688 -11.460938 3.1875 -11.46875 3.5 -11.46875 L 6.359375 -11.46875 L 6.359375 -8.984375 L 3.53125 -8.984375 L 3.53125 -6.984375 L 6.359375 -6.984375 L 6.359375 -4.484375 L 3.53125 -4.484375 L 3.53125 -2.5 L 6.359375 -2.5 L 6.359375 0 Z M 3.5 0 "/></g></g></g><g fill="#100f0d" fill-opacity="1"><g transform="translate(118.636548, 183.374285)"><g><path d="M 5.171875 0 C 4.722656 0 4.347656 0 4.046875 0 C 3.742188 0 3.488281 -0.00390625 3.28125 -0.015625 C 3.070312 -0.0351562 2.894531 -0.0507812 2.75 -0.0625 C 2.613281 -0.0820312 2.488281 -0.113281 2.375 -0.15625 C 1.820312 -0.28125 1.425781 -0.5 1.1875 -0.8125 C 0.945312 -1.125 0.789062 -1.628906 0.71875 -2.328125 C 0.71875 -2.390625 0.710938 -2.457031 0.703125 -2.53125 C 0.703125 -2.613281 0.703125 -2.757812 0.703125 -2.96875 C 0.703125 -3.1875 0.695312 -3.507812 0.6875 -3.9375 C 0.675781 -4.375 0.664062 -4.992188 0.65625 -5.796875 L 0.65625 -10.796875 C 0.65625 -12.285156 0.71875 -13.425781 0.84375 -14.21875 C 0.976562 -15.007812 1.207031 -15.570312 1.53125 -15.90625 C 1.675781 -16.050781 1.835938 -16.171875 2.015625 -16.265625 C 2.191406 -16.367188 2.414062 -16.445312 2.6875 -16.5 C 2.957031 -16.5625 3.289062 -16.601562 3.6875 -16.625 C 4.09375 -16.65625 4.585938 -16.671875 5.171875 -16.671875 L 11.453125 -16.671875 L 11.453125 -12.578125 C 11.085938 -12.710938 10.597656 -12.820312 9.984375 -12.90625 C 9.378906 -13 8.785156 -13.046875 8.203125 -13.046875 L 6.625 -13.046875 C 6.269531 -13.046875 5.992188 -13.03125 5.796875 -13 C 5.597656 -12.976562 5.445312 -12.914062 5.34375 -12.8125 C 5.25 -12.707031 5.1875 -12.550781 5.15625 -12.34375 C 5.132812 -12.144531 5.125 -11.875 5.125 -11.53125 L 5.125 -5.59375 C 5.125 -5.144531 5.132812 -4.789062 5.15625 -4.53125 C 5.1875 -4.28125 5.238281 -4.082031 5.3125 -3.9375 C 5.382812 -3.789062 5.492188 -3.703125 5.640625 -3.671875 C 5.796875 -3.640625 6 -3.625 6.25 -3.625 L 6.96875 -3.625 L 6.96875 -7.65625 C 6.96875 -7.96875 6.941406 -8.269531 6.890625 -8.5625 C 6.847656 -8.851562 6.757812 -9.175781 6.625 -9.53125 L 11.453125 -9.53125 L 11.453125 -3.703125 C 11.453125 -3.179688 11.441406 -2.75 11.421875 -2.40625 C 11.410156 -2.070312 11.378906 -1.789062 11.328125 -1.5625 C 11.273438 -1.332031 11.203125 -1.144531 11.109375 -1 C 11.015625 -0.851562 10.894531 -0.71875 10.75 -0.59375 C 10.601562 -0.46875 10.445312 -0.363281 10.28125 -0.28125 C 10.113281 -0.207031 9.894531 -0.148438 9.625 -0.109375 C 9.351562 -0.0664062 9.015625 -0.0351562 8.609375 -0.015625 C 8.203125 -0.00390625 7.675781 0 7.03125 0 Z M 5.171875 0 "/></g></g></g><g fill="#100f0d" fill-opacity="1"><g transform="translate(150.734614, 183.374285)"><g><path d="M 0.796875 -16.671875 L 7.625 -16.671875 C 8.1875 -16.671875 8.632812 -16.664062 8.96875 -16.65625 C 9.300781 -16.65625 9.566406 -16.640625 9.765625 -16.609375 C 9.972656 -16.585938 10.132812 -16.550781 10.25 -16.5 C 10.363281 -16.445312 10.488281 -16.378906 10.625 -16.296875 C 11.289062 -15.867188 11.625 -14.921875 11.625 -13.453125 L 11.625 -12.375 C 11.625 -11.957031 11.617188 -11.609375 11.609375 -11.328125 C 11.597656 -11.046875 11.578125 -10.800781 11.546875 -10.59375 C 11.515625 -10.394531 11.46875 -10.21875 11.40625 -10.0625 C 11.351562 -9.914062 11.273438 -9.769531 11.171875 -9.625 C 10.972656 -9.289062 10.726562 -9.046875 10.4375 -8.890625 C 10.144531 -8.734375 9.722656 -8.617188 9.171875 -8.546875 C 9.671875 -8.398438 10.078125 -8.242188 10.390625 -8.078125 C 10.710938 -7.921875 10.960938 -7.722656 11.140625 -7.484375 C 11.328125 -7.242188 11.453125 -6.957031 11.515625 -6.625 C 11.585938 -6.289062 11.625 -5.875 11.625 -5.375 L 11.625 -2.796875 C 11.625 -1.785156 11.738281 -0.851562 11.96875 0 L 7.5 0 C 7.363281 -0.4375 7.269531 -0.851562 7.21875 -1.25 C 7.175781 -1.644531 7.15625 -2.160156 7.15625 -2.796875 L 7.15625 -5.03125 C 7.15625 -5.5625 7.050781 -5.941406 6.84375 -6.171875 C 6.644531 -6.410156 6.3125 -6.53125 5.84375 -6.53125 L 5.28125 -6.53125 L 5.28125 0 L 0.796875 0 Z M 5.90625 -10.15625 C 6.414062 -10.15625 6.753906 -10.242188 6.921875 -10.421875 C 7.085938 -10.609375 7.171875 -10.992188 7.171875 -11.578125 C 7.171875 -12.128906 7.078125 -12.507812 6.890625 -12.71875 C 6.710938 -12.9375 6.382812 -13.046875 5.90625 -13.046875 L 5.28125 -13.046875 L 5.28125 -10.15625 Z M 5.90625 -10.15625 "/></g></g></g><g fill="#100f0d" fill-opacity="1"><g transform="translate(183.157624, 183.374285)"><g><path d="M 5.078125 0 C 4.078125 0 3.273438 -0.144531 2.671875 -0.4375 C 2.078125 -0.726562 1.628906 -1.191406 1.328125 -1.828125 C 1.191406 -2.109375 1.082031 -2.394531 1 -2.6875 C 0.914062 -2.976562 0.847656 -3.3125 0.796875 -3.6875 C 0.742188 -4.0625 0.707031 -4.492188 0.6875 -4.984375 C 0.664062 -5.472656 0.65625 -6.070312 0.65625 -6.78125 L 0.65625 -9.90625 C 0.65625 -10.601562 0.664062 -11.195312 0.6875 -11.6875 C 0.707031 -12.175781 0.742188 -12.609375 0.796875 -12.984375 C 0.847656 -13.359375 0.914062 -13.691406 1 -13.984375 C 1.082031 -14.273438 1.191406 -14.5625 1.328125 -14.84375 C 1.628906 -15.476562 2.078125 -15.941406 2.671875 -16.234375 C 3.273438 -16.523438 4.078125 -16.671875 5.078125 -16.671875 L 7.078125 -16.671875 C 8.078125 -16.671875 8.875 -16.523438 9.46875 -16.234375 C 10.070312 -15.941406 10.523438 -15.476562 10.828125 -14.84375 C 10.960938 -14.5625 11.070312 -14.273438 11.15625 -13.984375 C 11.238281 -13.691406 11.300781 -13.359375 11.34375 -12.984375 C 11.394531 -12.609375 11.429688 -12.175781 11.453125 -11.6875 C 11.484375 -11.195312 11.5 -10.601562 11.5 -9.90625 L 11.5 -6.78125 C 11.5 -6.070312 11.484375 -5.472656 11.453125 -4.984375 C 11.429688 -4.492188 11.394531 -4.0625 11.34375 -3.6875 C 11.300781 -3.3125 11.238281 -2.976562 11.15625 -2.6875 C 11.070312 -2.394531 10.960938 -2.109375 10.828125 -1.828125 C 10.523438 -1.191406 10.070312 -0.726562 9.46875 -0.4375 C 8.875 -0.144531 8.078125 0 7.078125 0 Z M 7.03125 -11.90625 C 7.03125 -12.300781 6.941406 -12.617188 6.765625 -12.859375 C 6.585938 -13.097656 6.359375 -13.21875 6.078125 -13.21875 C 5.796875 -13.21875 5.566406 -13.097656 5.390625 -12.859375 C 5.210938 -12.617188 5.125 -12.300781 5.125 -11.90625 L 5.125 -4.71875 C 5.125 -4.300781 5.210938 -3.976562 5.390625 -3.75 C 5.566406 -3.519531 5.796875 -3.40625 6.078125 -3.40625 C 6.359375 -3.40625 6.585938 -3.519531 6.765625 -3.75 C 6.941406 -3.976562 7.03125 -4.300781 7.03125 -4.71875 Z M 7.03125 -11.90625 "/></g></g></g><g fill="#100f0d" fill-opacity="1"><g transform="translate(215.280684, 183.374285)"><g><path d="M 5.296875 0 C 4.203125 0 3.375 -0.046875 2.8125 -0.140625 C 2.25 -0.234375 1.835938 -0.394531 1.578125 -0.625 C 1.304688 -0.851562 1.109375 -1.1875 0.984375 -1.625 C 0.859375 -2.070312 0.796875 -2.664062 0.796875 -3.40625 L 0.796875 -16.671875 L 5.28125 -16.671875 L 5.28125 -5.03125 C 5.28125 -4.007812 5.585938 -3.5 6.203125 -3.5 C 6.835938 -3.5 7.15625 -4.007812 7.15625 -5.03125 L 7.15625 -16.671875 L 11.625 -16.671875 L 11.625 -3.40625 C 11.625 -2.664062 11.5625 -2.070312 11.4375 -1.625 C 11.3125 -1.1875 11.113281 -0.851562 10.84375 -0.625 C 10.582031 -0.394531 10.164062 -0.234375 9.59375 -0.140625 C 9.03125 -0.046875 8.207031 0 7.125 0 Z M 5.296875 0 "/></g></g></g><g fill="#100f0d" fill-opacity="1"><g transform="translate(247.703693, 183.374285)"><g><path d="M 0.796875 -16.671875 L 8.03125 -16.671875 C 8.8125 -16.671875 9.414062 -16.628906 9.84375 -16.546875 C 10.28125 -16.460938 10.597656 -16.332031 10.796875 -16.15625 C 11.097656 -15.882812 11.316406 -15.441406 11.453125 -14.828125 C 11.597656 -14.210938 11.671875 -13.378906 11.671875 -12.328125 L 11.671875 -11.078125 C 11.671875 -10.023438 11.59375 -9.140625 11.4375 -8.421875 C 11.289062 -7.703125 11.085938 -7.226562 10.828125 -7 C 10.710938 -6.894531 10.59375 -6.8125 10.46875 -6.75 C 10.351562 -6.6875 10.207031 -6.632812 10.03125 -6.59375 C 9.863281 -6.5625 9.648438 -6.539062 9.390625 -6.53125 C 9.128906 -6.53125 8.800781 -6.53125 8.40625 -6.53125 L 5.28125 -6.53125 L 5.28125 0 L 0.796875 0 Z M 5.28125 -13.046875 L 5.28125 -10.15625 L 6.03125 -10.15625 C 6.457031 -10.15625 6.753906 -10.253906 6.921875 -10.453125 C 7.085938 -10.648438 7.171875 -11.015625 7.171875 -11.546875 C 7.171875 -12.117188 7.078125 -12.507812 6.890625 -12.71875 C 6.710938 -12.9375 6.382812 -13.046875 5.90625 -13.046875 Z M 5.28125 -13.046875 "/></g></g></g></svg>